<?xml version="1.0" encoding="UTF-8"?>
<svg xmlns="http://www.w3.org/2000/svg" id="Layer_1" data-name="Layer 1" viewBox="0 0 24 24">
  <path d="M17.154,9.123c1.283,0,2.36,.173,3.265,.474-.077-.433-.24-1.164-.241-1.168-.215-.844-.497-1.338-.528-1.392-.138-.234-.365-.403-.63-.466-.098-.023-1.618-.382-3.826-.639v-.447c0-2.361-1.924-4.282-4.288-4.282s-4.287,1.921-4.287,4.282v.448c-2.206,.257-3.728,.615-3.826,.639-.33,.079-.597,.318-.71,.638-.03,.086-.537,1.532-.846,3.722,1.424,.297,4.966,.965,9.27,1.25,1.271-1.998,3.527-3.058,6.649-3.058Zm-7.536-3.638c0-.707,.578-1.282,1.287-1.282s1.288,.575,1.288,1.282v.214c-.42-.016-.851-.025-1.288-.025s-.867,.009-1.287,.025v-.214Z"/>
  <path d="M9.659,14.127c-3.934-.301-7.115-.882-8.622-1.192-.024,.42-.037,.855-.037,1.303,0,3.975,1.039,6.909,1.083,7.032,.114,.317,.38,.556,.708,.634,.121,.029,3.013,.712,6.735,.868,0,0,1.669,0,1.802-.002-1.67-1.69-2.021-4.091-2.021-5.809,0-1.043,.119-1.988,.352-2.833Z"/>
  <path d="M17.154,11.123c-3.935,0-5.847,1.909-5.847,5.836,0,5.231,3.337,5.836,5.847,5.836,3.934,0,5.846-1.909,5.846-5.836,0-5.231-3.336-5.836-5.846-5.836Zm1.845,7.256c-.196,.252-.724,.637-1.403,.171l-1.108-.867c-.242-.189-.384-.48-.384-.788v-1.993c0-.552,.447-1,1-1s1,.448,1,1v1.506l.725,.567c.435,.34,.512,.969,.171,1.404Z"/>
</svg>
